<svg width="152" height="85" viewBox="0 0 152 85" fill="none" xmlns="http://www.w3.org/2000/svg">
<path d="M11.9531 17.8516C15.0293 17.8516 17.4902 18.6719 19.3359 20.3125C20.0918 20.9805 20.6309 21.6543 20.9531 22.334C21.2812 23.0078 21.4453 23.8574 21.4453 24.8828C21.4453 25.6621 21.1699 26.3271 20.6191 26.8779C20.0742 27.4229 19.4121 27.6953 18.6328 27.6953C17.8535 27.6953 17.1885 27.4229 16.6377 26.8779C16.0928 26.3271 15.8203 25.6621 15.8203 24.8828C15.8203 24.4844 15.8994 24.1094 16.0576 23.7578C16.2158 23.4004 16.4355 23.0898 16.7168 22.8262C16.2949 22.041 15.7236 21.4844 15.0029 21.1562C14.2881 20.8281 13.3887 20.6641 12.3047 20.6641C11.5957 20.6641 10.9365 20.8076 10.3271 21.0947C9.72363 21.3818 9.19922 21.7832 8.75391 22.2988C8.31445 22.8145 7.93652 23.4238 7.62012 24.127C7.30371 24.8301 7.06641 25.6035 6.9082 26.4473C6.75586 27.2852 6.67969 28.1699 6.67969 29.1016C6.67969 30.0215 6.77344 30.9062 6.96094 31.7559C7.14844 32.6055 7.4209 33.3789 7.77832 34.0762C8.13574 34.7734 8.55469 35.3828 9.03516 35.9043C9.51562 36.4199 10.0664 36.8213 10.6875 37.1084C11.3145 37.3955 11.9707 37.5391 12.6562 37.5391C13.6523 37.5391 14.5781 37.2725 15.4336 36.7393C16.2949 36.2061 17.0068 35.459 17.5693 34.498C18.1377 33.5312 18.4922 32.4355 18.6328 31.2109L21.4453 31.9141C21.3047 32.5996 21.1406 33.2383 20.9531 33.8301C20.7656 34.416 20.5312 35.002 20.25 35.5879C19.9688 36.168 19.6494 36.6924 19.292 37.1611C18.9346 37.6299 18.5127 38.0664 18.0264 38.4707C17.54 38.875 17.0039 39.2148 16.418 39.4902C15.832 39.7598 15.1611 39.9707 14.4053 40.123C13.6494 40.2754 12.832 40.3516 11.9531 40.3516C10.9043 40.3516 9.90234 40.2402 8.94727 40.0176C7.99805 39.8008 7.13672 39.4961 6.36328 39.1035C5.5957 38.7109 4.88672 38.2422 4.23633 37.6973C3.58594 37.1523 3.02344 36.5518 2.54883 35.8955C2.07422 35.2334 1.66992 34.5332 1.33594 33.7949C1.00781 33.0508 0.761719 32.2861 0.597656 31.501C0.433594 30.71 0.351562 29.9102 0.351562 29.1016C0.351562 28.293 0.433594 27.4961 0.597656 26.7109C0.761719 25.9199 1.00781 25.1553 1.33594 24.417C1.66992 23.6729 2.07422 22.9727 2.54883 22.3164C3.02344 21.6543 3.58594 21.0508 4.23633 20.5059C4.88672 19.9609 5.5957 19.4922 6.36328 19.0996C7.13672 18.707 7.99805 18.4023 8.94727 18.1855C9.90234 17.9629 10.9043 17.8516 11.9531 17.8516ZM33.0469 39.9912V37.1875H34.8047V26.6406H29.5312V37.1875H31.2891V39.9912L22.8516 40V37.1875H24.6094V26.6406H22.8516V23.8281H41.4844V26.6406H39.7266V37.1875H41.4844V40L33.0469 39.9912ZM54.6943 23.4238C56.0654 23.4238 57.2285 23.7754 58.1836 24.4785C59.1387 25.1816 59.8477 26.1631 60.3105 27.4229C60.7793 28.6826 61.0137 30.1826 61.0137 31.9229C61.0137 33.1943 60.8467 34.3574 60.5127 35.4121C60.1846 36.4668 59.7217 37.3574 59.124 38.084C58.5322 38.8047 57.8145 39.3643 56.9707 39.7627C56.1328 40.1553 55.2129 40.3516 54.2109 40.3516C53.707 40.3516 53.2324 40.3047 52.7871 40.2109C52.3418 40.123 51.9609 40.0117 51.6445 39.877C51.334 39.7422 51.0381 39.5752 50.7568 39.376C50.4756 39.1768 50.2471 38.9893 50.0713 38.8135C49.9014 38.6377 49.7344 38.4414 49.5703 38.2246V42.8125H51.3281V45.625H42.8906V42.8125H44.6484V26.6406H42.8906V23.8281H48.1113L49.1748 25.876C49.4033 25.5537 49.6641 25.2607 49.957 24.9971C51.1172 23.9482 52.6963 23.4238 54.6943 23.4238ZM49.5703 35.2451C50.2383 36.4756 51.1465 37.0908 52.2949 37.0908C53.4551 37.0908 54.3164 36.6367 54.8789 35.7285C55.4473 34.8203 55.7314 33.5312 55.7314 31.8613C55.7314 31.0762 55.6377 30.3525 55.4502 29.6904C55.2686 29.0225 55.0225 28.4688 54.7119 28.0293C54.4072 27.5898 54.0557 27.25 53.6572 27.0098C53.2588 26.7637 52.8428 26.6406 52.4092 26.6406C51.8232 26.6406 51.3018 26.8047 50.8447 27.1328C50.3936 27.4551 49.9688 27.9355 49.5703 28.5742V35.2451Z" fill="#3B3B3B"/>
<path d="M123.41 26.9131C122.742 26.4971 121.893 26.2891 120.861 26.2891C120.445 26.2891 120.059 26.3477 119.701 26.4648C119.344 26.5762 119.001 26.7695 118.673 27.0449C118.351 27.3203 118.075 27.6689 117.847 28.0908C117.618 28.5127 117.437 29.0488 117.302 29.6992C117.167 30.3496 117.1 31.0879 117.1 31.9141C117.1 32.7402 117.173 33.4756 117.319 34.1201C117.466 34.7646 117.659 35.292 117.899 35.7021C118.146 36.1123 118.438 36.4492 118.778 36.7129C119.124 36.9766 119.479 37.1641 119.842 37.2754C120.205 37.3809 120.598 37.4336 121.02 37.4336C122.256 37.4336 123.22 37.1963 123.911 36.7217C124.608 36.2412 125.165 35.5029 125.581 34.5068L127.919 35.3154C127.708 35.8838 127.438 36.4199 127.11 36.9238C126.788 37.4219 126.398 37.8818 125.941 38.3037C125.484 38.7256 124.975 39.0889 124.412 39.3936C123.855 39.6924 123.226 39.9268 122.522 40.0967C121.819 40.2666 121.078 40.3516 120.299 40.3516C119.145 40.3516 118.052 40.1494 117.021 39.7451C115.995 39.3408 115.102 38.7783 114.34 38.0576C113.584 37.3311 112.983 36.4375 112.538 35.377C112.099 34.3164 111.879 33.1621 111.879 31.9141C111.879 30.9121 112.02 29.9688 112.301 29.084C112.582 28.1992 112.978 27.417 113.487 26.7373C114.003 26.0576 114.606 25.4717 115.298 24.9795C115.989 24.4873 116.757 24.1152 117.601 23.8633C118.444 23.6055 119.329 23.4766 120.255 23.4766C120.987 23.4766 121.676 23.5469 122.32 23.6875C122.965 23.8223 123.539 24.0098 124.043 24.25C124.553 24.4844 125.027 24.7773 125.467 25.1289C125.906 25.4805 126.29 25.8555 126.618 26.2539C126.952 26.6465 127.263 27.0889 127.55 27.5811C127.849 28.0439 127.998 28.5508 127.998 29.1016C127.998 29.8809 127.723 30.5459 127.172 31.0967C126.627 31.6416 125.965 31.9141 125.186 31.9141C124.406 31.9141 123.741 31.6416 123.19 31.0967C122.646 30.5459 122.373 29.8809 122.373 29.1016C122.373 28.668 122.464 28.2607 122.646 27.8799C122.833 27.499 123.088 27.1768 123.41 26.9131ZM139.969 40V37.1875H141.727V30.4639L136.225 40H129.773V37.1875H131.531V26.6406H129.773V23.8281H138.211V26.6406H136.453V33.9707L142.307 23.8281H148.406V26.6406H146.648V37.1875H148.406V40H139.969Z" fill="#3B3B3B"/>
<path d="M7.32031 75.6406C7.64062 75.8177 8.09635 75.9062 8.6875 75.9062C9.01562 75.9062 9.29818 75.8841 9.53516 75.8398C9.77474 75.7956 9.98568 75.7214 10.168 75.6172C10.3503 75.5104 10.487 75.3646 10.5781 75.1797C10.6719 74.9948 10.7188 74.7682 10.7188 74.5C10.7188 74.0911 10.5443 73.7812 10.1953 73.5703C9.84635 73.3568 9.29167 73.25 8.53125 73.25V72C8.78385 72 9.01432 71.9766 9.22266 71.9297C9.43099 71.8802 9.60677 71.8138 9.75 71.7305C9.89583 71.6445 10.0221 71.5469 10.1289 71.4375C10.2383 71.3281 10.3229 71.2083 10.3828 71.0781C10.4453 70.9453 10.4909 70.8138 10.5195 70.6836C10.5482 70.5534 10.5625 70.4193 10.5625 70.2812C10.5625 69.0312 9.9375 68.4062 8.6875 68.4062C8.40104 68.4062 8.12109 68.4674 7.84766 68.5898C7.57422 68.7096 7.34505 68.8724 7.16016 69.0781C7.42318 69.1536 7.63932 69.3021 7.80859 69.5234C7.97786 69.7448 8.0625 69.9974 8.0625 70.2812C8.0625 70.6276 7.9401 70.9232 7.69531 71.168C7.45312 71.4102 7.15885 71.5312 6.8125 71.5312C6.57031 71.5312 6.34896 71.4688 6.14844 71.3438C5.95052 71.2161 5.79948 71.0482 5.69531 70.8398C5.54427 70.5586 5.46875 70.2552 5.46875 69.9297C5.46875 69.6536 5.52474 69.3815 5.63672 69.1133C5.7487 68.8451 5.91536 68.5938 6.13672 68.3594C6.35807 68.125 6.61979 67.918 6.92188 67.7383C7.22656 67.5586 7.58464 67.4167 7.99609 67.3125C8.41016 67.2083 8.84896 67.1562 9.3125 67.1562C9.89323 67.1562 10.4076 67.2057 10.8555 67.3047C11.306 67.401 11.6784 67.5352 11.9727 67.707C12.2669 67.8763 12.5078 68.0872 12.6953 68.3398C12.8854 68.5924 13.0195 68.8646 13.0977 69.1562C13.1784 69.4453 13.2188 69.7682 13.2188 70.125C13.2188 70.4089 13.1784 70.6732 13.0977 70.918C13.0195 71.1602 12.9141 71.3711 12.7812 71.5508C12.651 71.7279 12.4935 71.888 12.3086 72.0312C12.1237 72.1745 11.9336 72.293 11.7383 72.3867C11.543 72.4779 11.3333 72.5547 11.1094 72.6172C11.3776 72.6589 11.6237 72.7174 11.8477 72.793C12.0742 72.8659 12.2826 72.9596 12.4727 73.0742C12.6628 73.1888 12.8229 73.3216 12.9531 73.4727C13.0859 73.6211 13.1888 73.7956 13.2617 73.9961C13.3372 74.1966 13.375 74.4167 13.375 74.6562C13.375 74.9505 13.3346 75.2188 13.2539 75.4609C13.1732 75.7005 13.0352 75.9284 12.8398 76.1445C12.6471 76.3581 12.3984 76.5378 12.0938 76.6836C11.7891 76.8294 11.401 76.944 10.9297 77.0273C10.4609 77.1133 9.92188 77.1562 9.3125 77.1562C8.52604 77.1562 7.84115 77.0599 7.25781 76.8672C6.67708 76.6745 6.23307 76.4049 5.92578 76.0586C5.62109 75.7122 5.46875 75.3099 5.46875 74.8516C5.46875 74.526 5.54427 74.2227 5.69531 73.9414C5.79948 73.7331 5.95052 73.5664 6.14844 73.4414C6.34896 73.3138 6.57031 73.25 6.8125 73.25C7.15885 73.25 7.45312 73.3724 7.69531 73.6172C7.9401 73.8594 8.0625 74.1536 8.0625 74.5C8.0625 74.7526 7.99479 74.9818 7.85938 75.1875C7.72396 75.3932 7.54427 75.5443 7.32031 75.6406ZM18.6875 77V75.75H19.4688V73.875H17.125V75.75H17.9062V77H14.1562V75.75H14.9375V71.0625H14.1562V69.8125H17.9062V71.0625H17.125V72.625H19.4688V71.0625H18.6875V69.8125H22.4375V71.0625H21.6562V75.75H22.4375V77H18.6875ZM29.7812 72.293V75.75H30.5625V77H28.1289L27.7812 76.1875C27.5156 76.5677 27.207 76.8281 26.8555 76.9688C26.5065 77.1094 26.0182 77.1797 25.3906 77.1797C25.0651 77.1797 24.7617 77.1224 24.4805 77.0078C24.2018 76.8958 23.9635 76.7422 23.7656 76.5469C23.5703 76.3516 23.4167 76.1172 23.3047 75.8438C23.1953 75.5703 23.1406 75.2773 23.1406 74.9648C23.1406 74.4258 23.3516 73.9792 23.7734 73.625C24.1953 73.2682 24.7344 73.0898 25.3906 73.0898C25.9193 73.0898 26.3568 73.1406 26.7031 73.2422C27.0495 73.3411 27.3464 73.5 27.5938 73.7188V72.0625C27.5938 71.8281 27.5612 71.6328 27.4961 71.4766C27.4336 71.3177 27.3385 71.1966 27.2109 71.1133C27.0833 71.0273 26.9401 70.9674 26.7812 70.9336C26.6224 70.8997 26.4323 70.8828 26.2109 70.8828C26.0339 70.8828 25.8737 70.9206 25.7305 70.9961C25.8112 71.1654 25.8516 71.3438 25.8516 71.5312C25.8516 71.8776 25.7292 72.1732 25.4844 72.418C25.2422 72.6602 24.9479 72.7812 24.6016 72.7812C24.2552 72.7812 23.9596 72.6602 23.7148 72.418C23.4727 72.1732 23.3516 71.8776 23.3516 71.5312C23.3516 71.3542 23.3854 71.1875 23.4531 71.0312C23.5234 70.875 23.6198 70.7383 23.7422 70.6211C23.8464 70.5117 23.9544 70.4141 24.0664 70.3281C24.1784 70.2396 24.319 70.1523 24.4883 70.0664C24.6602 69.9779 24.8464 69.9049 25.0469 69.8477C25.2474 69.7904 25.487 69.7448 25.7656 69.7109C26.0469 69.6745 26.3542 69.6562 26.6875 69.6562C27.1198 69.6562 27.526 69.7201 27.9062 69.8477C28.2865 69.9753 28.6146 70.1523 28.8906 70.3789C29.1667 70.6055 29.3841 70.8841 29.543 71.2148C29.7018 71.5456 29.7812 71.9049 29.7812 72.293ZM27.5938 75.2656V74.7266C27.4323 74.5729 27.25 74.444 27.0469 74.3398C26.8464 74.2331 26.6602 74.1797 26.4883 74.1797C26.1185 74.1797 25.8581 74.2422 25.707 74.3672C25.556 74.4896 25.4805 74.6888 25.4805 74.9648C25.4805 75.2956 25.5456 75.5391 25.6758 75.6953C25.806 75.8516 26.0482 75.9297 26.4023 75.9297C26.6029 75.9297 26.8112 75.8659 27.0273 75.7383C27.2461 75.6081 27.4349 75.4505 27.5938 75.2656ZM35.0078 77.2031C34.4948 77.2031 34.0091 77.1133 33.5508 76.9336C33.0951 76.7539 32.6979 76.5039 32.3594 76.1836C32.0234 75.8607 31.7565 75.4635 31.5586 74.9922C31.3633 74.5208 31.2656 74.0078 31.2656 73.4531C31.2656 72.8984 31.3633 72.3828 31.5586 71.9062C31.7565 71.4297 32.0234 71.0286 32.3594 70.7031C32.6979 70.375 33.0951 70.1185 33.5508 69.9336C34.0091 69.7487 34.4948 69.6562 35.0078 69.6562C35.5208 69.6562 36.0052 69.7487 36.4609 69.9336C36.9193 70.1185 37.3164 70.375 37.6523 70.7031C37.9909 71.0286 38.2578 71.4297 38.4531 71.9062C38.651 72.3828 38.75 72.8984 38.75 73.4531L38.6523 73.875H33.6016C33.625 74.1771 33.6745 74.4466 33.75 74.6836C33.8255 74.9206 33.9167 75.1146 34.0234 75.2656C34.1328 75.4167 34.2591 75.5417 34.4023 75.6406C34.5456 75.737 34.6927 75.806 34.8438 75.8477C34.9948 75.8867 35.1562 75.9062 35.3281 75.9062C35.8776 75.9062 36.306 75.8008 36.6133 75.5898C36.9232 75.3763 37.1706 75.0482 37.3555 74.6055L38.3945 74.9648C38.3008 75.2174 38.181 75.4557 38.0352 75.6797C37.8919 75.901 37.7188 76.1055 37.5156 76.293C37.3125 76.4805 37.0859 76.6419 36.8359 76.7773C36.5885 76.9102 36.3086 77.0143 35.9961 77.0898C35.6836 77.1654 35.3542 77.2031 35.0078 77.2031ZM33.6289 72.625H36.3867C36.319 72.026 36.1693 71.5898 35.9375 71.3164C35.7057 71.043 35.3984 70.9062 35.0156 70.9062C34.8255 70.9062 34.6549 70.9375 34.5039 71C34.3529 71.0599 34.2174 71.1576 34.0977 71.293C33.9779 71.4258 33.8776 71.6042 33.7969 71.8281C33.7188 72.0495 33.6628 72.3151 33.6289 72.625ZM39.4531 69.8125H42.5781L44.5898 73.6289L46.4961 69.8125H49.4531V71.0625H48.6719V75.75H49.4531V77H45.7031V75.75H46.4844V72.6133L44.6094 76.3711L43.7109 76.375L41.4844 72.1562V75.75H42.2656V77H39.4531V75.75H40.2344V71.0625H39.4531V69.8125ZM51.3281 74.5781C51.612 74.5781 51.8646 74.6641 52.0859 74.8359C52.3099 75.0078 52.4596 75.2305 52.5352 75.5039C52.5872 75.694 52.6133 75.8945 52.6133 76.1055C52.6133 76.4258 52.5508 76.75 52.4258 77.0781C52.3008 77.4089 52.1289 77.7201 51.9102 78.0117C51.6914 78.3034 51.4375 78.5755 51.1484 78.8281C50.862 79.0833 50.5534 79.3073 50.2227 79.5L49.6562 78.9336C50.2448 78.4622 50.6458 78.0977 50.8594 77.8398C51.0755 77.582 51.1875 77.3255 51.1953 77.0703C50.8776 77.0339 50.612 76.8971 50.3984 76.6602C50.1849 76.4232 50.0781 76.1458 50.0781 75.8281C50.0781 75.4818 50.1992 75.1875 50.4414 74.9453C50.6862 74.7005 50.9818 74.5781 51.3281 74.5781ZM57.5 69.8125H61.0547V71.0625H60.4688V72.625H60.625C60.9557 72.625 61.2474 72.1562 61.5 71.2188C61.5651 70.9766 61.6497 70.7643 61.7539 70.582C61.8607 70.3971 61.9948 70.2344 62.1562 70.0938C62.3203 69.9505 62.5221 69.8424 62.7617 69.7695C63.0039 69.694 63.2812 69.6562 63.5938 69.6562C64.1615 69.6562 64.6159 69.8307 64.957 70.1797C65.2982 70.526 65.4688 70.9766 65.4688 71.5312C65.4688 71.8776 65.3464 72.1732 65.1016 72.418C64.8594 72.6602 64.5651 72.7812 64.2188 72.7812C63.8724 72.7812 63.5768 72.6602 63.332 72.418C63.0898 72.1732 62.9688 71.8776 62.9688 71.5312C62.9688 71.3724 62.9974 71.2188 63.0547 71.0703C63.026 71.0651 62.9974 71.0625 62.9688 71.0625C62.9271 71.0625 62.8893 71.0794 62.8555 71.1133C62.8216 71.1445 62.7721 71.2396 62.707 71.3984C62.6445 71.5547 62.5755 71.7799 62.5 72.0742C62.375 72.5638 62.1276 72.9167 61.7578 73.1328H61.9141C62.112 73.1328 62.2917 73.1484 62.4531 73.1797C62.6146 73.2109 62.7552 73.2539 62.875 73.3086C62.9948 73.3607 63.1016 73.431 63.1953 73.5195C63.2917 73.6081 63.3711 73.6992 63.4336 73.793C63.4987 73.8867 63.5573 74.0026 63.6094 74.1406C63.6641 74.276 63.7083 74.4062 63.7422 74.5312C63.776 74.6536 63.8099 74.7995 63.8438 74.9688C63.9245 75.3594 63.9857 75.6133 64.0273 75.7305C64.0716 75.8477 64.125 75.9062 64.1875 75.9062C64.2292 75.9062 64.2604 75.8984 64.2812 75.8828C64.3021 75.8646 64.3229 75.819 64.3438 75.7461C64.3672 75.6732 64.388 75.569 64.4062 75.4336C64.4245 75.2982 64.4453 75.1055 64.4688 74.8555L65.5625 74.9688C65.5365 75.2396 65.5 75.4766 65.4531 75.6797C65.4089 75.8828 65.3411 76.082 65.25 76.2773C65.1589 76.4701 65.0456 76.6276 64.9102 76.75C64.7747 76.8724 64.6016 76.9701 64.3906 77.043C64.1797 77.1185 63.9362 77.1562 63.6602 77.1562C63.3711 77.1562 63.1289 77.1432 62.9336 77.1172C62.7409 77.0938 62.5677 77.0378 62.4141 76.9492C62.263 76.8581 62.1445 76.7643 62.0586 76.668C61.9727 76.5716 61.8906 76.4128 61.8125 76.1914C61.7344 75.9674 61.6732 75.7526 61.6289 75.5469C61.5846 75.3411 61.5286 75.0443 61.4609 74.6562C61.4089 74.3646 61.3255 74.1615 61.2109 74.0469C61.0964 73.9323 60.9531 73.875 60.7812 73.875H60.4688V75.75H61.0547V77H57.5V75.75H58.2812V71.0625H57.5V69.8125ZM73.0156 72.293V75.75H73.7969V77H71.3633L71.0156 76.1875C70.75 76.5677 70.4414 76.8281 70.0898 76.9688C69.7409 77.1094 69.2526 77.1797 68.625 77.1797C68.2995 77.1797 67.9961 77.1224 67.7148 77.0078C67.4362 76.8958 67.1979 76.7422 67 76.5469C66.8047 76.3516 66.651 76.1172 66.5391 75.8438C66.4297 75.5703 66.375 75.2773 66.375 74.9648C66.375 74.4258 66.5859 73.9792 67.0078 73.625C67.4297 73.2682 67.9688 73.0898 68.625 73.0898C69.1536 73.0898 69.5911 73.1406 69.9375 73.2422C70.2839 73.3411 70.5807 73.5 70.8281 73.7188V72.0625C70.8281 71.8281 70.7956 71.6328 70.7305 71.4766C70.668 71.3177 70.5729 71.1966 70.4453 71.1133C70.3177 71.0273 70.1745 70.9674 70.0156 70.9336C69.8568 70.8997 69.6667 70.8828 69.4453 70.8828C69.2682 70.8828 69.1081 70.9206 68.9648 70.9961C69.0456 71.1654 69.0859 71.3438 69.0859 71.5312C69.0859 71.8776 68.9635 72.1732 68.7188 72.418C68.4766 72.6602 68.1823 72.7812 67.8359 72.7812C67.4896 72.7812 67.194 72.6602 66.9492 72.418C66.707 72.1732 66.5859 71.8776 66.5859 71.5312C66.5859 71.3542 66.6198 71.1875 66.6875 71.0312C66.7578 70.875 66.8542 70.7383 66.9766 70.6211C67.0807 70.5117 67.1888 70.4141 67.3008 70.3281C67.4128 70.2396 67.5534 70.1523 67.7227 70.0664C67.8945 69.9779 68.0807 69.9049 68.2812 69.8477C68.4818 69.7904 68.7214 69.7448 69 69.7109C69.2812 69.6745 69.5885 69.6562 69.9219 69.6562C70.3542 69.6562 70.7604 69.7201 71.1406 69.8477C71.5208 69.9753 71.849 70.1523 72.125 70.3789C72.401 70.6055 72.6185 70.8841 72.7773 71.2148C72.9362 71.5456 73.0156 71.9049 73.0156 72.293ZM70.8281 75.2656V74.7266C70.6667 74.5729 70.4844 74.444 70.2812 74.3398C70.0807 74.2331 69.8945 74.1797 69.7227 74.1797C69.3529 74.1797 69.0924 74.2422 68.9414 74.3672C68.7904 74.4896 68.7148 74.6888 68.7148 74.9648C68.7148 75.2956 68.7799 75.5391 68.9102 75.6953C69.0404 75.8516 69.2826 75.9297 69.6367 75.9297C69.8372 75.9297 70.0456 75.8659 70.2617 75.7383C70.4805 75.6081 70.6693 75.4505 70.8281 75.2656ZM74.5781 69.8125H78.1328V71.0625H77.5469V72.625H77.7031C78.0339 72.625 78.3255 72.1562 78.5781 71.2188C78.6432 70.9766 78.7279 70.7643 78.832 70.582C78.9388 70.3971 79.0729 70.2344 79.2344 70.0938C79.3984 69.9505 79.6003 69.8424 79.8398 69.7695C80.082 69.694 80.3594 69.6562 80.6719 69.6562C81.2396 69.6562 81.694 69.8307 82.0352 70.1797C82.3763 70.526 82.5469 70.9766 82.5469 71.5312C82.5469 71.8776 82.4245 72.1732 82.1797 72.418C81.9375 72.6602 81.6432 72.7812 81.2969 72.7812C80.9505 72.7812 80.6549 72.6602 80.4102 72.418C80.168 72.1732 80.0469 71.8776 80.0469 71.5312C80.0469 71.3724 80.0755 71.2188 80.1328 71.0703C80.1042 71.0651 80.0755 71.0625 80.0469 71.0625C80.0052 71.0625 79.9674 71.0794 79.9336 71.1133C79.8997 71.1445 79.8503 71.2396 79.7852 71.3984C79.7227 71.5547 79.6536 71.7799 79.5781 72.0742C79.4531 72.5638 79.2057 72.9167 78.8359 73.1328H78.9922C79.1901 73.1328 79.3698 73.1484 79.5312 73.1797C79.6927 73.2109 79.8333 73.2539 79.9531 73.3086C80.0729 73.3607 80.1797 73.431 80.2734 73.5195C80.3698 73.6081 80.4492 73.6992 80.5117 73.793C80.5768 73.8867 80.6354 74.0026 80.6875 74.1406C80.7422 74.276 80.7865 74.4062 80.8203 74.5312C80.8542 74.6536 80.888 74.7995 80.9219 74.9688C81.0026 75.3594 81.0638 75.6133 81.1055 75.7305C81.1497 75.8477 81.2031 75.9062 81.2656 75.9062C81.3073 75.9062 81.3385 75.8984 81.3594 75.8828C81.3802 75.8646 81.401 75.819 81.4219 75.7461C81.4453 75.6732 81.4661 75.569 81.4844 75.4336C81.5026 75.2982 81.5234 75.1055 81.5469 74.8555L82.6406 74.9688C82.6146 75.2396 82.5781 75.4766 82.5312 75.6797C82.487 75.8828 82.4193 76.082 82.3281 76.2773C82.237 76.4701 82.1237 76.6276 81.9883 76.75C81.8529 76.8724 81.6797 76.9701 81.4688 77.043C81.2578 77.1185 81.0143 77.1562 80.7383 77.1562C80.4492 77.1562 80.207 77.1432 80.0117 77.1172C79.819 77.0938 79.6458 77.0378 79.4922 76.9492C79.3411 76.8581 79.2227 76.7643 79.1367 76.668C79.0508 76.5716 78.9688 76.4128 78.8906 76.1914C78.8125 75.9674 78.7513 75.7526 78.707 75.5469C78.6628 75.3411 78.6068 75.0443 78.5391 74.6562C78.487 74.3646 78.4036 74.1615 78.2891 74.0469C78.1745 73.9323 78.0312 73.875 77.8594 73.875H77.5469V75.75H78.1328V77H74.5781V75.75H75.3594V71.0625H74.5781V69.8125ZM92.125 76.9961V75.75H92.9062V71.0625H90.5625V75.75H91.3438V76.9961L87.5938 77V75.75H88.375V71.0625H87.5938V69.8125H95.875V71.0625H95.0938V75.75H95.875V77L92.125 76.9961ZM98.8633 69.9492C99.3216 69.7695 99.8073 69.6797 100.32 69.6797C100.833 69.6797 101.318 69.7695 101.773 69.9492C102.232 70.1289 102.63 70.3802 102.969 70.7031C103.307 71.0234 103.574 71.4193 103.77 71.8906C103.967 72.362 104.066 72.875 104.066 73.4297C104.066 73.9844 103.967 74.4974 103.77 74.9688C103.574 75.4401 103.307 75.8372 102.969 76.1602C102.63 76.4805 102.232 76.7305 101.773 76.9102C101.318 77.0898 100.833 77.1797 100.32 77.1797C99.8073 77.1797 99.3216 77.0898 98.8633 76.9102C98.4076 76.7305 98.0104 76.4805 97.6719 76.1602C97.3359 75.8372 97.069 75.4401 96.8711 74.9688C96.6758 74.4974 96.5781 73.9844 96.5781 73.4297C96.5781 72.875 96.6758 72.362 96.8711 71.8906C97.069 71.4193 97.3359 71.0234 97.6719 70.7031C98.0104 70.3802 98.4076 70.1289 98.8633 69.9492ZM100.32 70.9297C100.138 70.9297 99.9753 70.9557 99.832 71.0078C99.6888 71.0599 99.5573 71.1458 99.4375 71.2656C99.3177 71.3854 99.2188 71.5404 99.1406 71.7305C99.0651 71.9206 99.0052 72.1576 98.9609 72.4414C98.9193 72.7253 98.8984 73.0547 98.8984 73.4297C98.8984 73.8047 98.9193 74.1341 98.9609 74.418C99.0052 74.7018 99.0651 74.9388 99.1406 75.1289C99.2188 75.319 99.3177 75.474 99.4375 75.5938C99.5573 75.7135 99.6888 75.7995 99.832 75.8516C99.9753 75.9036 100.138 75.9297 100.32 75.9297C100.549 75.9297 100.749 75.8867 100.918 75.8008C101.087 75.7122 101.234 75.5716 101.359 75.3789C101.487 75.1862 101.582 74.9271 101.645 74.6016C101.71 74.276 101.742 73.8854 101.742 73.4297C101.742 72.974 101.71 72.5833 101.645 72.2578C101.582 71.9323 101.487 71.6732 101.359 71.4805C101.234 71.2878 101.087 71.1484 100.918 71.0625C100.749 70.974 100.549 70.9297 100.32 70.9297ZM104.766 69.8125H107.891L109.902 73.6289L111.809 69.8125H114.766V71.0625H113.984V75.75H114.766V77H111.016V75.75H111.797V72.6133L109.922 76.3711L109.023 76.375L106.797 72.1562V75.75H107.578V77H104.766V75.75H105.547V71.0625H104.766V69.8125ZM117.754 69.9492C118.212 69.7695 118.698 69.6797 119.211 69.6797C119.724 69.6797 120.208 69.7695 120.664 69.9492C121.122 70.1289 121.521 70.3802 121.859 70.7031C122.198 71.0234 122.465 71.4193 122.66 71.8906C122.858 72.362 122.957 72.875 122.957 73.4297C122.957 73.9844 122.858 74.4974 122.66 74.9688C122.465 75.4401 122.198 75.8372 121.859 76.1602C121.521 76.4805 121.122 76.7305 120.664 76.9102C120.208 77.0898 119.724 77.1797 119.211 77.1797C118.698 77.1797 118.212 77.0898 117.754 76.9102C117.298 76.7305 116.901 76.4805 116.562 76.1602C116.227 75.8372 115.96 75.4401 115.762 74.9688C115.566 74.4974 115.469 73.9844 115.469 73.4297C115.469 72.875 115.566 72.362 115.762 71.8906C115.96 71.4193 116.227 71.0234 116.562 70.7031C116.901 70.3802 117.298 70.1289 117.754 69.9492ZM119.211 70.9297C119.029 70.9297 118.866 70.9557 118.723 71.0078C118.579 71.0599 118.448 71.1458 118.328 71.2656C118.208 71.3854 118.109 71.5404 118.031 71.7305C117.956 71.9206 117.896 72.1576 117.852 72.4414C117.81 72.7253 117.789 73.0547 117.789 73.4297C117.789 73.8047 117.81 74.1341 117.852 74.418C117.896 74.7018 117.956 74.9388 118.031 75.1289C118.109 75.319 118.208 75.474 118.328 75.5938C118.448 75.7135 118.579 75.7995 118.723 75.8516C118.866 75.9036 119.029 75.9297 119.211 75.9297C119.44 75.9297 119.639 75.8867 119.809 75.8008C119.978 75.7122 120.125 75.5716 120.25 75.3789C120.378 75.1862 120.473 74.9271 120.535 74.6016C120.6 74.276 120.633 73.8854 120.633 73.4297C120.633 72.974 120.6 72.5833 120.535 72.2578C120.473 71.9323 120.378 71.6732 120.25 71.4805C120.125 71.2878 119.978 71.1484 119.809 71.0625C119.639 70.974 119.44 70.9297 119.211 70.9297ZM126.781 74.9688C126.417 74.9688 126.098 74.9193 125.824 74.8203C125.551 74.7214 125.327 74.5859 125.152 74.4141C124.978 74.2396 124.836 74.0195 124.727 73.7539C124.62 73.4857 124.544 73.1992 124.5 72.8945C124.458 72.5872 124.438 72.237 124.438 71.8438V71.0625H123.656V69.8125H127.406V71.0625H126.625V72C126.625 72.4115 126.661 72.7318 126.734 72.9609C126.81 73.1901 126.917 73.3477 127.055 73.4336C127.195 73.5195 127.385 73.5625 127.625 73.5625C127.846 73.5625 128.073 73.4674 128.305 73.2773C128.539 73.0872 128.76 72.8216 128.969 72.4805V71.0625H128.188V69.8125H131.938V71.0625H131.156V75.75H131.938V77H128.188V75.75H128.969V73.7461C128.875 73.9206 128.764 74.0781 128.637 74.2188C128.509 74.3594 128.358 74.4883 128.184 74.6055C128.009 74.7201 127.802 74.8099 127.562 74.875C127.326 74.9375 127.065 74.9688 126.781 74.9688ZM132.562 71.0625V69.8125H136.312V71.0625H135.551L135.543 72.625H136.312C137.484 72.625 138.324 72.7943 138.832 73.1328C139.34 73.4714 139.594 74.0312 139.594 74.8125C139.594 75.5938 139.34 76.1536 138.832 76.4922C138.324 76.8307 137.484 77 136.312 77H132.562V75.75H133.344V71.0625H132.562ZM135.539 73.875L135.531 75.75H136.312C136.833 75.75 137.094 75.4375 137.094 74.8125C137.094 74.1875 136.833 73.875 136.312 73.875H135.539ZM140.551 76.7148C140.309 76.4701 140.188 76.1745 140.188 75.8281C140.188 75.4818 140.309 75.1875 140.551 74.9453C140.796 74.7005 141.091 74.5781 141.438 74.5781C141.784 74.5781 142.078 74.7005 142.32 74.9453C142.565 75.1875 142.688 75.4818 142.688 75.8281C142.688 76.1745 142.565 76.4701 142.32 76.7148C142.078 76.957 141.784 77.0781 141.438 77.0781C141.091 77.0781 140.796 76.957 140.551 76.7148ZM140.551 67.3672C140.796 67.1224 141.091 67 141.438 67C141.784 67 142.078 67.1224 142.32 67.3672C142.565 67.6094 142.688 67.9036 142.688 68.25C142.688 68.8021 142.59 69.5742 142.395 70.5664C142.199 71.556 141.99 72.4505 141.766 73.25H141.109C140.885 72.4505 140.676 71.556 140.48 70.5664C140.285 69.5742 140.188 68.8021 140.188 68.25C140.188 67.9036 140.309 67.6094 140.551 67.3672Z" fill="#3B3B3B"/>
<path d="M88.1901 48.5421L98.6374 37.9302H96.4322C96.1632 37.9302 95.8981 37.897 95.6419 37.8334L87.1552 46.4539L78.6724 37.8323C78.416 37.8966 78.1494 37.9302 77.8774 37.9302H75.6788L86.1198 48.5421C86.6915 49.123 87.6185 49.123 88.1901 48.5421ZM101.864 20.9444C104.635 23.7602 105.351 27.8601 104.013 31.3315C103.867 31.3118 103.719 31.3016 103.569 31.3016H101.617C103.091 28.4787 102.658 24.8909 100.304 22.499C97.4258 19.5735 92.8011 19.572 89.9545 22.4641L87.8662 24.5906C87.4367 25.028 86.7349 25.0284 86.305 24.5914L84.1965 22.4484C81.3245 19.5294 76.7031 19.5272 73.8631 22.4137C71.5078 24.8075 71.0991 28.4534 72.6519 31.3016H70.6311C70.4978 31.3016 70.3664 31.3096 70.2372 31.3251C68.8379 27.8312 69.5236 23.6837 72.3026 20.8592C75.9374 17.1649 81.799 17.1104 85.5361 20.6763C85.6105 20.7474 85.6842 20.82 85.757 20.8939L87.0845 22.2431L88.3941 20.9096C88.4725 20.8299 88.5518 20.752 88.6321 20.6757C92.3613 17.1374 98.2132 17.2334 101.864 20.9444ZM82.6238 25.3529C82.4538 24.9425 82.056 24.6746 81.6142 24.673C81.1723 24.6714 80.7726 24.9365 80.5998 25.3457L77.151 33.5111H70.6311C70.0248 33.5111 69.5332 34.0058 69.5332 34.6159C69.5332 35.2259 70.0248 35.7207 70.6311 35.7207H77.8774C78.3178 35.7207 78.7156 35.456 78.8878 35.0481L81.6003 28.626L86.0864 39.4598C86.2444 39.8414 86.6007 40.1022 87.01 40.136C87.4194 40.1698 87.8133 39.9709 88.0309 39.6205L92.7368 32.044L95.6059 35.3435C95.8145 35.5832 96.1155 35.7207 96.4322 35.7207H103.569C104.175 35.7207 104.667 35.2259 104.667 34.6159C104.667 34.0058 104.175 33.5111 103.569 33.5111H96.9304L93.4157 29.4694C93.1869 29.2062 92.8479 29.0676 92.5016 29.0956C92.1553 29.1236 91.8426 29.3149 91.6584 29.6113L87.2957 36.6354L82.6238 25.3529Z" fill="#FF4242"/>
<path d="M0.5 56.5H147.5" stroke="black"/>
</svg>
