<svg width="40" height="40" viewBox="0 0 40 40" fill="none" xmlns="http://www.w3.org/2000/svg">
<rect x="0.75" y="0.75" width="38.3824" height="38.5" rx="19.1912" stroke="#D13B3B" stroke-width="1.5"/>
<path d="M12.7882 27.1531C12.2965 27.1531 11.8755 26.978 11.5253 26.6278C11.1751 26.2776 11 25.8566 11 25.3648V14.6354C11 14.1436 11.1751 13.7227 11.5253 13.3725C11.8755 13.0223 12.2965 12.8472 12.7882 12.8472H27.0941C27.5859 12.8472 28.0069 13.0223 28.3571 13.3725C28.7073 13.7227 28.8824 14.1436 28.8824 14.6354V25.3648C28.8824 25.8566 28.7073 26.2776 28.3571 26.6278C28.0069 26.978 27.5859 27.1531 27.0941 27.1531H12.7882ZM19.9412 20.8942L12.7882 16.4236V25.3648H27.0941V16.4236L19.9412 20.8942ZM19.9412 19.106L27.0941 14.6354H12.7882L19.9412 19.106ZM12.7882 16.4236V14.6354V25.3648V16.4236Z" fill="#D13B3B"/>
</svg>
