<svg width="41" height="40" viewBox="0 0 41 40" fill="none" xmlns="http://www.w3.org/2000/svg">
<rect x="1.63232" y="0.75" width="38.5" height="38.5" rx="19.25" stroke="#D13B3B" stroke-width="1.5"/>
<path d="M29.7157 30C27.4008 30 25.1138 29.4954 22.8545 28.4861C20.5953 27.4769 18.5397 26.0463 16.6879 24.1944C14.836 22.3426 13.4055 20.287 12.3962 18.0278C11.387 15.7685 10.8823 13.4815 10.8823 11.1667C10.8823 10.8333 10.9934 10.5556 11.2157 10.3333C11.4379 10.1111 11.7157 10 12.049 10H16.549C16.8082 10 17.0397 10.088 17.2434 10.2639C17.4471 10.4398 17.5675 10.6481 17.6045 10.8889L18.3268 14.7778C18.3638 15.0741 18.3545 15.3241 18.299 15.5278C18.2434 15.7315 18.1416 15.9074 17.9934 16.0556L15.299 18.7778C15.6694 19.463 16.1092 20.125 16.6184 20.7639C17.1277 21.4028 17.6879 22.0185 18.299 22.6111C18.8731 23.1852 19.4749 23.7176 20.1045 24.2083C20.7342 24.6991 21.4008 25.1481 22.1045 25.5556L24.7157 22.9444C24.8823 22.7778 25.0999 22.6528 25.3684 22.5694C25.637 22.4861 25.9008 22.463 26.1601 22.5L29.9934 23.2778C30.2527 23.3519 30.4657 23.4861 30.6323 23.6806C30.799 23.875 30.8823 24.0926 30.8823 24.3333V28.8333C30.8823 29.1667 30.7712 29.4444 30.549 29.6667C30.3268 29.8889 30.049 30 29.7157 30ZM14.2434 16.6667L16.0768 14.8333L15.6045 12.2222H13.1323C13.2249 12.9815 13.3545 13.7315 13.5212 14.4722C13.6879 15.213 13.9286 15.9444 14.2434 16.6667ZM24.1879 26.6111C24.9101 26.9259 25.6462 27.1759 26.3962 27.3611C27.1462 27.5463 27.9008 27.6667 28.6601 27.7222V25.2778L26.049 24.75L24.1879 26.6111Z" fill="#D13B3B"/>
</svg>
